<svg height="512pt" viewBox="-11 0 512 512.00041" width="512pt" xmlns="http://www.w3.org/2000/svg"><path d="m278.164062 271.113281c-24.039062 0-40.96875-2.113281-42.898437-2.363281-6.738281-.882812-12.042969-6.1875-12.925781-12.929688-.730469-5.589843-17.15625-137.695312 48.019531-202.875 64.992187-64.988281 200.1875-52.117187 205.910156-51.539062 7.085938.71875 12.691407 6.324219 13.410157 13.410156.582031 5.726563 13.453124 140.921875-51.539063 205.910156-42.726563 42.730469-114.222656 50.386719-159.976563 50.386719zm0 0" fill="#a7d533"/><path d="m489.679688 14.820312c-.359376-3.542968-1.9375-6.714843-4.3125-9.09375l-258.757813 258.757813c2.277344 2.277344 5.289063 3.824219 8.65625 4.265625 1.929687.25 18.859375 2.363281 42.898437 2.363281 45.753907 0 117.25-7.65625 159.980469-50.386719 64.988281-64.988281 52.117188-200.183593 51.535157-205.90625zm0 0" fill="#49ba6e"/><path d="m477.929688 149.046875c2.964843-9.960937 5.292968-20.054687 7.109374-30h-91.789062l97.007812-97.003906c-.265624-4.011719-.507812-6.542969-.578124-7.222657-.714844-7.089843-6.320313-12.695312-13.410157-13.410156-.679687-.070312-3.210937-.3125-7.222656-.578125l-140 140v-123.398437c-10.402344 3.765625-20.507813 8.324218-30 13.804687v139.59375l-71.148437 71.148438c-5.859376 5.855469-5.859376 15.355469 0 21.210937 2.925781 2.929688 6.765624 4.394532 10.605468 4.394532 3.835938 0 7.675782-1.464844 10.601563-4.394532l114.148437-114.144531zm0 0" fill="#148253"/><path d="m477.929688 149.046875c2.964843-9.960937 5.292968-20.054687 7.109374-30h-91.789062l97.007812-97.003906c-.265624-4.011719-.507812-6.542969-.578124-7.222657-.359376-3.542968-1.9375-6.714843-4.3125-9.09375l-257.46875 257.46875c2.929687 2.925782 6.765624 4.390626 10.605468 4.390626 3.835938 0 7.675782-1.464844 10.601563-4.394532l114.148437-114.144531zm0 0" fill="#148253"/><path d="m212.925781 301.113281c-45.753906 0-117.246093-7.65625-159.980469-50.390625-64.988281-64.988281-52.117187-200.183594-51.539062-205.90625.71875-7.089844 6.324219-12.691406 13.414062-13.410156 5.722657-.582031 140.917969-13.453125 205.90625 51.535156 65.179688 65.179688 48.753907 197.285156 48.023438 202.875-.882812 6.742188-6.1875 12.046875-12.929688 12.929688-1.925781.253906-18.863281 2.367187-42.894531 2.367187zm0 0" fill="#c5ed4e"/><path d="m255.820312 298.746094c3.371094-.441406 6.382813-1.988282 8.664063-4.265625l-258.757813-258.757813c-2.378906 2.375-3.960937 5.550782-4.320312 9.09375-.578125 5.722656-13.449219 140.917969 51.539062 205.910156 42.734376 42.730469 114.226563 50.386719 159.980469 50.386719 24.03125 0 40.96875-2.113281 42.894531-2.367187zm0 0" fill="#a7d533"/><g fill="#49ba6e"><path d="m149.046875 157.832031v-114.675781c-9.960937-2.964844-20.054687-5.292969-30-7.113281v91.789062l-97.003906-97.003906c-4.011719.265625-6.542969.507813-7.222657.578125-7.089843.71875-12.695312 6.320312-13.414062 13.410156-.066406.679688-.308594 3.210938-.574219 7.222656l140 140.003907h-123.398437c3.765625 10.398437 8.324218 20.503906 13.804687 29.996093h139.589844l77.511719 77.511719c4.171875-.382812 6.792968-.714843 7.480468-.804687 6.742188-.878906 12.046876-6.183594 12.929688-12.925782.089844-.691406.417969-3.308593.804688-7.480468zm0 0"/><path d="m5.726562 35.722656c-2.378906 2.375-3.960937 5.550782-4.320312 9.09375-.066406.679688-.308594 3.210938-.574219 7.222656l140 140.003907h-123.398437c3.765625 10.398437 8.324218 20.503906 13.804687 29.996093h139.589844l77.511719 77.511719c4.171875-.382812 6.792968-.714843 7.480468-.804687 3.371094-.4375 6.382813-1.988282 8.664063-4.265625zm0 0"/><path d="m71.8125 407.660156h37.996094c6.5 0 10.25 6.25 10.25 13 0 5.75-3.25 12.5-10.25 12.5h-37.996094v50.242188h70.742188c6.5 0 10.25 6.75 10.25 14.5 0 6.75-3.25 14-10.25 14h-88.992188c-7.25 0-14.246094-3.5-14.246094-10.25v-162.234375c0-6.75 6.996094-10.25 14.246094-10.25h88.992188c7 0 10.25 7.25 10.25 14 0 7.746093-3.75 14.496093-10.25 14.496093h-70.742188zm0 0"/><path d="m241.296875 356.265625c-16.75 0-26.246094 9.246094-26.246094 28.746094v69.742187c0 19.5 9.496094 28.75 26.746094 28.75 22.75 0 24.746094-16.25 25.496094-26.75.5-7.746094 7.5-10.246094 16-10.246094 11.25 0 16.5 3.25 16.5 15.996094 0 30.25-24.75 49.496094-59.746094 49.496094-31.496094 0-57.496094-15.5-57.496094-57.246094v-69.742187c0-41.746094 26.25-57.246094 57.746094-57.246094 34.746094 0 59.496094 18.5 59.496094 47.496094 0 13-5.25 16-16.25 16-9.25 0-16-2.75-16.25-10.25-.5-7.75-2.246094-24.746094-25.996094-24.746094zm0 0"/></g><path d="m332.285156 454.753906v-69.742187c0-41.746094 25.5-57.246094 58.496094-57.246094s58.746094 15.5 58.746094 57.246094v69.742187c0 41.746094-25.75 57.246094-58.746094 57.246094s-58.496094-15.5-58.496094-57.246094zm84.742188-69.742187c0-19.75-9.996094-28.746094-26.246094-28.746094-16.5 0-26 8.996094-26 28.746094v69.742187c0 19.75 9.5 28.75 26 28.75 16.25 0 26.246094-9 26.246094-28.75zm0 0" fill="#148253"/><path d="m283.292969 446.507812c-8.5 0-15.5 2.5-16 10.246094-.75 10.5-2.746094 26.75-25.496094 26.75-.210937 0-.414063-.007812-.625-.011718v28.488281c34.398437-.410157 58.621094-19.554688 58.621094-49.476563 0-12.746094-5.25-15.996094-16.5-15.996094zm0 0" fill="#148253"/><path d="m241.171875 327.78125v28.484375h.125c23.75 0 25.496094 16.996094 25.996094 24.746094.25 7.5 7 10.25 16.25 10.25 11 0 16.25-3 16.25-16 0-28.75-24.339844-47.171875-58.621094-47.480469zm0 0" fill="#148253"/></svg>